# xmcd CD database file
#
# Track frame offsets:
#	150
#	17790
#	40394
#	61965
#	81632
#	100731
#	122072
#	142544
#	152387
#	168168
#	186644
#	208017
#	221546
#	235918
#	256521
#
# Disc length: 3619 seconds
#
# Revision: 0
# Processed by: cddbd v1.5.1PL0 Copyright (c) Steve Scherf et al.
# Submitted via: CDex 1.51
#
DISCID=c60e210f
DTITLE=Kristin Korb/Todd Johnson Trio - Get Happy
DYEAR=2004
DGENRE=Jazz
TTITLE0=I'm Old Fashioned
TTITLE1=Top Of The World
TTITLE2=Just A Closer Walk With Thee
TTITLE3=If You Never Fall In Love With Me
TTITLE4=Moon River
TTITLE5=Sunshine and Slim
TTITLE6=Cheek To Cheek
TTITLE7=Wonder Why
TTITLE8=Get Happy
TTITLE9=You Don't Know What Love Is
TTITLE10=Goin' Home
TTITLE11=You'd Be So Nice To Come Home To
TTITLE12=Everything Happens To Me
TTITLE13=Blues for Hellen
TTITLE14=When You're Smilin'
EXTD=YEAR: 2004
EXTT0=
EXTT1=
EXTT2=
EXTT3=
EXTT4=
EXTT5=
EXTT6=
EXTT7=
EXTT8=
EXTT9=
EXTT10=
EXTT11=
EXTT12=
EXTT13=
EXTT14=
PLAYORDER=
